<?xml version="1.0" standalone="no"?>
<!DOCTYPE svg PUBLIC "-//W3C//DTD SVG 20010904//EN"
 "http://www.w3.org/TR/2001/REC-SVG-20010904/DTD/svg10.dtd">
<svg version="1.0" xmlns="http://www.w3.org/2000/svg"
 width="458.000000pt" height="458.000000pt" viewBox="0 0 458.000000 458.000000"
 preserveAspectRatio="xMidYMid meet">
<metadata>
Created by potrace 1.11, written by Peter Selinger 2001-2013
</metadata>
<g transform="translate(0.000000,458.000000) scale(0.100000,-0.100000)"
fill="#000000" stroke="none">
<path d="M2120 4522 c-20 -11 -44 -35 -55 -58 -20 -39 -21 -49 -20 -2239 0
-1210 4 -2206 8 -2212 6 -10 68 -13 253 -13 225 0 244 1 246 18 0 9 2 1005 3
2212 2 2121 1 2196 -17 2232 -32 66 -52 73 -228 76 -136 3 -159 1 -190 -16z"/>
<path d="M1226 4016 c-26 -13 -48 -34 -59 -56 -16 -33 -17 -132 -15 -1747 l3
-1712 29 -30 c42 -44 74 -50 236 -47 164 3 187 10 219 66 l21 38 0 1696 c0
1860 4 1740 -60 1786 -30 21 -43 23 -183 25 -134 1 -154 -1 -191 -19z"/>
<path d="M3018 4021 c-18 -9 -43 -31 -55 -50 l-23 -34 0 -1700 c1 -1877 -4
-1741 62 -1789 28 -19 45 -21 181 -23 134 -1 154 1 191 19 83 42 76 -123 76
1795 l0 1704 -26 35 c-40 52 -70 60 -231 60 -112 0 -150 -4 -175 -17z"/>
<path d="M387 3529 c-59 -7 -94 -28 -120 -74 -13 -23 -18 -2374 -5 -2422 9
-35 45 -75 79 -90 16 -7 83 -11 170 -11 127 1 149 3 183 22 78 43 72 -54 72
1288 l-1 1197 -21 28 c-38 51 -69 61 -189 65 -60 2 -136 0 -168 -3z"/>
<path d="M3955 3529 c-44 -7 -83 -35 -104 -75 -14 -26 -16 -147 -16 -1224 0
-1168 1 -1196 20 -1228 35 -59 80 -71 245 -69 163 3 188 11 223 66 l22 36 1
1190 c0 674 -3 1201 -8 1215 -14 39 -58 79 -92 85 -49 8 -250 11 -291 4z"/>
</g>
</svg>
